<svg xmlns="http://www.w3.org/2000/svg" width="446pt" height="480" version="1.1" viewBox="0 0 446 360">
    <g id="surface5">
        <path fill="#fff" fill-opacity="1" fill-rule="nonzero" stroke="none" d="M236.172 14.61c13.098-9.165 25.937-7.637 45.14-.91 21.563-5.759 43.989 7.585 29.887 20.722 18.637 10.879.598 28.746-14.32 25.5 7.793 6.363-14.945 18.586-37.668 7.058-30.66 10.891-40.61 1.239-43.895-8.199-23.527-3.87-7.625-26.125-1.543-29.37-18.277-10.216 7.766-21.727 22.399-14.802zm0 0" transform="scale(.75)"/>
        <path fill="none" stroke="#000" stroke-linecap="butt" stroke-linejoin="miter" stroke-miterlimit="10" stroke-opacity="1" stroke-width="1.5" d="M178.325 11.405c11.762-5.516 18.468-6.369 35.387-.129M180.009 9.42c6.463-6.946 18.964-4.195 30.404-1.116m0 0c15.689-2.549 33.46 7.605 21.302 16.222M210.738 8.828c13.99-6.288 30.457 3.38 20.013 17.282m0 0c14.344 7.177 1.371 19.531-12.507 20.205m12.976-20.449c12.82 10.28-1.834 19.694-11.549 17.025m0 0c6.492 6.044-13.222 15.858-28.77 6.91m27.824-5.815c6.064 5.274-11.241 14.016-29.868 3.39m0 0c-22.237 8.054-32.54 1.59-32.426-8.22m33.275 6.433c-22.43 11.25-29.86 4.383-32.238-4.655m0 0c-17.018-1.755-7.717-18.732-2.833-21.941m3.592 23.288c-19.134-4.837-5.093-22.696.366-25.65m0 0c-13.333-7.86 4.195-15.389 15.322-12.251M156.92 17.59c-12.172-7.383 7.034-18.55 20.698-9.6m-.363.377c.788-1.854.583.085.729 2.614m-.51-2.766c.449 3.36.827 4.441.743 3.155"/>
        <path fill="#fff" fill-opacity="1" fill-rule="nonzero" stroke="none" d="M202.5 120h117v64h-117zm0 0" transform="scale(.75)"/>
        <path fill="none" stroke="#000" stroke-linecap="butt" stroke-linejoin="miter" stroke-miterlimit="10" stroke-opacity="1" stroke-width="1.5" d="M150.65 90.381c36.238.287 66.449 1.359 90.235.796m-88.02.329c18.888 1.294 36.39.759 87.184-.771m.637.765c-.71 19.675-2.08 37.201 1.116 46.72m-1.275-47.45c1.005 17.948-1.025 29.585-.547 49.53m-.118.471c-25.391-1.432-51.442-1.755-85.324-.58m85.078-.322c-29.573-1.614-60.472-2.35-88.08-.483m3.136-1.23c-1.359-10.105-2.229-24.291-.063-47.142m-2.688 49.219c-.506-18.185.438-35.552 1.615-47.845"/>
        <path fill="#ef5ba1" fill-opacity="1" fill-rule="nonzero" stroke="none" d="M4.5 264h117v64H4.5zm0 0" transform="scale(.75)"/>
        <path fill="none" stroke="#000" stroke-linecap="butt" stroke-linejoin="miter" stroke-miterlimit="10" stroke-opacity="1" stroke-width="1.5" d="M3.334 195.674c23.094 2.121 45.349 3.032 85.807 1.248m-88.248.932c32.324-.355 62.289-1.806 88.319-1.114m-.038-.483c.108 9.017 1.734 20.974-1.404 48.363m2.072-48.006c.556 15.19.292 29.036.214 47.821m-2.212 1.737c-21.917-2.208-49.623 1.008-83.054 1.067m84.41-1.488c-27.158-1.08-55.676-.12-85.857-1.184m1.345 2.318C.885 227.97 1.71 206.701.674 197.854m2.23 47.8c-.727-20.188-.085-38.302-.763-48.902"/>
        <path fill="#ef5ba1" fill-opacity="1" fill-rule="nonzero" stroke="none" d="M121.5 264h107c6.668 0 10 3.332 10 10v54h-117zm0 0" transform="scale(.75)"/>
        <path fill="none" stroke="#000" stroke-linecap="butt" stroke-linejoin="miter" stroke-miterlimit="10" stroke-opacity="1" stroke-width="1.5" d="M90.246 199.005c27.84.277 58.04-1.444 81.188.785m-82.02-1.787c28.084-1.96 53.874-1.426 80.27.05m.721-.642c4.474 1.515 6.721 4.058 6.735 7.635m-7.79-5.865c5.723-1.576 8.998.302 9.827 5.63m.943-1.801c-1.76 10.43.31 17.272-.055 42.26m-.578-39.483c-1.122 7.857-.472 17.195-.887 40.439m-.627-2.737c-21.117.431-39.55.724-86.341 3.118m87.527-.604c-34.008.802-68.985.472-88.242-.29m-.08-.958c-1.584-14.348 1.067-26.651.347-44.514m.237 45.378c-1.608-14.192-1.04-28.06-1.078-47.631"/>
        <path fill="#f99c41" fill-opacity="1" fill-rule="nonzero" stroke="none" d="M274.5 264h117v64h-117zm0 0" transform="scale(.75)"/>
        <path fill="none" stroke="#000" stroke-linecap="butt" stroke-linejoin="miter" stroke-miterlimit="10" stroke-opacity="1" stroke-width="1.5" d="M206.273 195.205c18.862 3.39 38.233 5.22 87.088 3.073m-87.38-1.749c23.428.733 48.881.888 88.362.059m-2.93-1.208c.914 9.868.337 21.429 1.694 47.058m1.23-45.182c-.56 7.928.715 18.023-1.313 46.213m2.204 1.605c-29.957-4.743-54.566-2.112-90.37-2.217m89.596 1.16c-23.097-1.957-45.726-1.45-89.144 1.122m1.186-2.411c-2.032-8.957.138-20.675-.126-46.732m-.074 49.47c-.149-12.02-1.35-25.282.484-49.616"/>
        <path fill="#f99c41" fill-opacity="1" fill-rule="nonzero" stroke="none" d="M391.5 264h117v64h-117zm0 0" transform="scale(.75)"/>
        <path fill="none" stroke="#000" stroke-linecap="butt" stroke-linejoin="miter" stroke-miterlimit="10" stroke-opacity="1" stroke-width="1.5" d="M294.8 199.325c33.372 1.194 69.179.635 87.41-2.974m-86.631 1.687c18.61-2.4 39.49-2.426 86.865.37m-.325-.81c-.026 21.622.272 36.364.495 46.565m1.47-46.901c-1.736 11.458-1.991 23.434.227 48.375m-.156 1.034c-29.514-.132-57.284-2.775-89.853-.917m90.035.105c-20.063 1.143-40.508 1.014-89.642-.849m1.707-.674c-1.312-8.595-1.6-23.15-1.116-47.344m-.331 48.894c1.207-16.955 1.453-33.999 1.498-47.91"/>
        <path fill="#fff" fill-opacity="1" fill-rule="nonzero" stroke="none" d="M4.5 328h234v32h-117v32h-107c-6.668 0-10-3.332-10-10zm0 0" transform="scale(.75)"/>
        <path fill="none" stroke="#000" stroke-linecap="butt" stroke-linejoin="miter" stroke-miterlimit="10" stroke-opacity="1" stroke-width="1.5" d="M5.391 247.675c66.468-5.088 134.721-5.502 173.326.089M4.743 245.979c54.346 1.45 108.226 1.357 174.958.824m2.59-.674c-1.948 4.511-1.183 7.881-1.597 25.336m-1.482-24.624c1.301 8.188-.062 15.378.665 23.584m1.62-2.388c-29.874 3.63-54.326 3.979-90.449.352m88.902 1.219c-20.11.45-39.996-.484-87.738-.56m1.046-.114c-1.26 6.984 1.013 14.669-1.852 26.718m1.468-25.816c-.993 5.311.577 12.176-.55 23.042m-1.633-.398c-24.765.855-48.846 2.215-79.485 1.5m80.96-1.131c-29.858 1.723-59.94 1.558-80.157 1.49m-.885.239c-3.375-.162-5.836-3.261-7.383-9.294m9.158 7.463c-6.541.134-9.77-2.385-9.685-7.56m2.065-.017c-.946-7.813-1.494-18.65 1.037-37.453m-3.703 37.318c2.45-10.234 2.165-18.697 1.561-38.485"/>
        <path fill="#fff" fill-opacity="1" fill-rule="nonzero" stroke="none" d="M274.5 328h234v32h-117v32h-107c-6.668 0-10-3.332-10-10zm0 0" transform="scale(.75)"/>
        <path fill="none" stroke="#000" stroke-linecap="butt" stroke-linejoin="miter" stroke-miterlimit="10" stroke-opacity="1" stroke-width="1.5" d="M206.59 244.19c63.606-4.061 126.51-2.892 175.23 1.746m-173.953-.264c46.922 3.015 96.292 2.745 175.19-.6m1.837-.402c-3.232 9.22-3.258 17.37-.654 24.047m-.422-23.238c.153 5.59-.008 12.79-1.177 22.901m-.865 1.901c-18.36-3.802-37.06-2.941-84.993.797m85.658-1.253c-27.087-2.048-54.955-2.02-87.377.53m1.784-1.371c-1.568 6.255-.956 11.449-2.175 24.63m.522-24.959c-.172 7.708-.345 13.064 1.16 25.659m.502.228c-20.373 1.134-36.218 2.417-81.718-1.172m81.15.407c-28.633-2.473-56.872-2.173-81.734-.606m.54 1.253c-5.186-.072-7.463-2.938-6.83-8.598m8.631 6.393c-6.284-.42-9.562-2.599-9.84-6.537m.287 1.568c-1.668-9.785 1.535-21.1 2.45-43.142m-3.197 42.058c.457-16.392.659-32.725 1.432-40.506M90.235 269.238c35.015-2.877 65.604-1.277 85.64 1.222m-87.065-1.942c18.777-1.149 36.835-.932 87.686.747m-.094 1.116c.235 7.447 2.06 11.308.896 20.902m.824-22.098c.082 6.208-1.064 13.468-.345 22.782m1.033 1.06c-31.174-1.916-63.603-.272-88.822-1.655m87.115 2.188c-32.796-.146-67.483-.427-87.232-.796m1.675-1.867c-.779-5.725-3.084-10.807-2.425-20.868m-.29 23.221c.24-5.739.445-12.905 1.438-24.208"/>
        <path fill="none" stroke="#000" stroke-linecap="butt" stroke-linejoin="miter" stroke-miterlimit="10" stroke-opacity="1" stroke-width="1.5" d="M291.164 270.759c32.145-2.843 63.782-2.013 87.84 1.945m-85.485-1.515c34.544-2.111 69.396-1.731 86.341 1.633m2.259.573c.3 5.913-2.118 18.086-2.15 23.646m-.023-24.416c.09 6.8 1.3 10.494 1.537 23.367m-.565.293c-28.166 4.567-53.804 1.957-88.744-1.995m87.833.89c-27.756-2.446-54.855-1.481-87.589.203m1.345-.316c-.493-5.21.383-11.078-.63-24.197m.562 25.122c-.472-5.44.56-12.694-1.544-24.006M91.792 187.65c-.872-7.975-.907-13.867-1.549-23.128m1.588 22.494c-.237-7.968.09-17.358-.323-22.482m1.817-2.334c52.453 4.629 102.823 3.793 201.147.184M92.69 163.919c60.416-2.086 119.612-2.405 200.674.926m-.65-.961c.633 9.835 1.684 18.729.978 23.226m.372-23.012c-.337 7.08.944 14.713.32 23.115M192.7 55.667c1.254 5.358-.826 11.49-.826 23.256m.105-23.083c1.102 8.12.994 15.823.733 24.931"/>
        <path fill="none" stroke="#000" stroke-linecap="butt" stroke-linejoin="miter" stroke-miterlimit="10" stroke-opacity="1" stroke-width="1.5" d="M194.868 136.148c.902 5.493.897 6.71-2.203 26.142m2.174-24.264c.536 7.36.296 15.267-.683 24.329"/>
    </g>
    <defs xmlns="http://www.w3.org/2000/svg">
        <filter id="dsFilterNoBlur" width="150%" height="150%">
            <feOffset dx="3" dy="3" in="SourceGraphic" result="offOut"/>
            <feColorMatrix in="offOut" result="matrixOut" type="matrix" values="0.2 0 0 0 0 0 0.2 0 0 0 0 0 0.2 0 0 0 0 0 1 0"/>
            <feBlend in="SourceGraphic" in2="matrixOut" mode="normal"/>
        </filter>
        <filter id="dsFilter" width="150%" height="150%">
            <feOffset dx="3" dy="3" in="SourceGraphic" result="offOut"/>
            <feColorMatrix in="offOut" result="matrixOut" type="matrix" values="0.2 0 0 0 0 0 0.2 0 0 0 0 0 0.2 0 0 0 0 0 1 0"/>
            <feGaussianBlur in="matrixOut" result="blurOut" stdDeviation="3"/>
            <feBlend in="SourceGraphic" in2="blurOut" mode="normal"/>
        </filter>
        <marker id="iPointer-9rcbxpn3lk4" fill="#000" markerHeight="7" markerUnits="strokeWidth" markerWidth="8" orient="auto" refX="5" refY="5" viewBox="0 0 10 10">
            <path d="M10 0v10L0 5z"/>
        </marker>
        <marker id="Pointer-9rcbxpn3lk4" fill="#000" markerHeight="7" markerUnits="strokeWidth" markerWidth="8" orient="auto" refX="5" refY="5" viewBox="0 0 10 10">
            <path d="M0 0l10 5-10 5z"/>
        </marker>
    </defs>
    <defs>
        <style type="text/css">
            @font-face{font-family:&quot;xkcd Script&quot;;src:url(./xkcd-script.ttf)}
        </style>
    </defs>
    <g xmlns="http://www.w3.org/2000/svg" id="lines-9rcbxpn3lk4" fill="none" stroke="#000" stroke-width="2" transform="scale(.75)">
        <g id="group441">
            <path id="path441" marker-end="url(#Pointer-9rcbxpn3lk4)" marker-start="url(#iPointer-9rcbxpn3lk4)" d="M121.5 248v-32h270v32"/>
        </g>
        <g id="group880">
            <path id="path880" marker-end="url(#Pointer-9rcbxpn3lk4)" d="M256.5 72v32"/>
        </g>
        <g id="group888">
            <path id="path888" d="M256.5 184v32"/>
        </g>
    </g>
    <text id="text0" x="161.325" y="33.6" fill="#000" stroke="none" font-family="xkcd Script" font-size="15">
        Users
    </text>
    <text id="text1" x="161.325" y="117.6" fill="#000" stroke="none" font-family="xkcd Script" font-size="15">
        Service
    </text>
    <text id="text4" x="12.825" y="225.6" fill="#fff" stroke="none" font-family="xkcd Script" font-size="15">
        Container
    </text>
    <text id="text5" x="100.575" y="225.6" fill="#fff" stroke="none" font-family="xkcd Script" font-size="15">
        Container
    </text>
    <text id="text6" x="215.325" y="225.6" fill="#fff" stroke="none" font-family="xkcd Script" font-size="15">
        Container
    </text>
    <text id="text7" x="303.075" y="225.6" fill="#fff" stroke="none" font-family="xkcd Script" font-size="15">
        Container
    </text>
    <text id="text10" x="12.825" y="273.6" fill="#000" stroke="none" font-family="xkcd Script" font-size="15">
        Host
    </text>
    <text id="text12" x="12.825" y="285.6" fill="#000" stroke="none" font-family="xkcd Script" font-size="15">
        [zone=a]
    </text>
    <text id="text11" x="215.325" y="273.6" fill="#000" stroke="none" font-family="xkcd Script" font-size="15">
        Host
    </text>
    <text id="text15" x="215.325" y="285.6" fill="#000" stroke="none" font-family="xkcd Script" font-size="15">
        [zone=b]
    </text>
    <text id="text13" x="114.075" y="285.6" fill="#000" stroke="none" font-family="xkcd Script" font-size="15">
        kernel
    </text>
    <text id="text16" x="316.575" y="285.6" fill="#000" stroke="none" font-family="xkcd Script" font-size="15">
        kernel
    </text>
    <text id="text2" x="188.325" y="189.6" fill="#000" font-family="xkcd Script" font-size="15">
        |
    </text>
    <text id="text3" x="188.325" y="213.6" fill="#000" font-family="xkcd Script" font-size="15">
        |
    </text>
    <text id="text8" x="188.325" y="237.6" fill="#000" font-family="xkcd Script" font-size="15">
        |
    </text>
    <text id="text9" x="188.325" y="261.6" fill="#000" font-family="xkcd Script" font-size="15">
        |
    </text>
    <text id="text14" x="188.325" y="285.6" fill="#000" font-family="xkcd Script" font-size="15">
        |
    </text>
    <text id="text17" x="188.325" y="309.6" fill="#000" font-family="xkcd Script" font-size="15">
        |
    </text>
    <text id="text18" x="-.675" y="321.6" fill="#000" font-family="xkcd Script" font-size="15">
        Availability zone a
    </text>
    <text id="text19" x="201.825" y="321.6" fill="#000" font-family="xkcd Script" font-size="15">
        Availability zone b
    </text>
    <text id="text20" x="188.325" y="333.6" fill="#000" font-family="xkcd Script" font-size="15">
        |
    </text>
</svg>
